<svg xmlns="http://www.w3.org/2000/svg" viewBox="0 0 500 350">
  <!-- Bulb glass -->
  <path d="M250 90
           C 210 90, 176 124, 176 166
           C 176 198, 196 218, 220 238
           L 220 254
           L 280 254
           L 280 238
           C 304 218, 324 198, 324 166
           C 324 124, 290 90, 250 90 Z"
        fill="#FFF7D9" stroke="#F2A61D" stroke-width="8" stroke-linejoin="round"/>
  <!-- Filament -->
  <path d="M224 150 Q 250 200, 276 150 M 250 200 L 250 230"
        fill="none" stroke="#F2A61D" stroke-width="5" stroke-linecap="round"/>
  <!-- Base threads -->
  <rect x="224" y="258" width="52" height="9" rx="1" fill="#F2A61D"/>
  <rect x="228" y="270" width="44" height="8" rx="1" fill="#B87A10"/>
  <rect x="232" y="281" width="36" height="4" rx="1" fill="#B87A10"/>
  <!-- Rainbow effect dots — left arc -->
  <circle cx="120" cy="210" r="10" fill="#E74C3C"/>
  <circle cx="95" cy="170" r="9" fill="#F39C12"/>
  <circle cx="80" cy="128" r="10" fill="#F1C40F"/>
  <circle cx="95" cy="85" r="9" fill="#27AE60"/>
  <circle cx="130" cy="55" r="9" fill="#3498DB"/>
  <!-- Rainbow effect dots — right arc -->
  <circle cx="380" cy="210" r="10" fill="#9B59B6"/>
  <circle cx="405" cy="170" r="9" fill="#E74C3C"/>
  <circle cx="420" cy="128" r="10" fill="#F39C12"/>
  <circle cx="405" cy="85" r="9" fill="#F1C40F"/>
  <circle cx="370" cy="55" r="9" fill="#27AE60"/>
</svg>
